<svg width="25" height="25" viewBox="0 0 25 25" fill="none" xmlns="http://www.w3.org/2000/svg">
<g clip-path="url(#clip0_76_204)">
<path d="M18.875 0.5H6.125C3.0184 0.5 0.5 3.0184 0.5 6.125V18.875C0.5 21.9816 3.0184 24.5 6.125 24.5H18.875C21.9816 24.5 24.5 21.9816 24.5 18.875V6.125C24.5 3.0184 21.9816 0.5 18.875 0.5Z" fill="#0277BD"/>
<path d="M5.53934 10.1235L5.80766 13.1181H12.509V10.1235H5.53934ZM12.5089 4.0625H5L5.27225 7.05706H12.5089V4.0625ZM12.5089 21.0163V17.9008L12.4958 17.9042L9.16072 17.0037L8.94753 14.6154H5.94144L6.36097 19.3173L12.4951 21.0202L12.5089 21.0163Z" fill="#EBEBEB"/>
<path d="M16.1861 13.1181L15.8384 17.0018L12.4986 17.9033V21.0187L18.6376 19.3173L18.6826 18.8113L19.3863 10.9277L19.4593 10.1235L20 4.0625H12.4986V7.05706H16.7182L16.4458 10.1235H12.4986V13.1181H16.1861Z" fill="white"/>
</g>
<defs>
<clipPath id="clip0_76_204">
<rect width="24" height="24" fill="white" transform="translate(0.5 0.5)"/>
</clipPath>
</defs>
</svg>
