<svg width="24" height="25" viewBox="0 0 24 25" fill="none" xmlns="http://www.w3.org/2000/svg">
<g clip-path="url(#clip0_91_168)">
<path d="M18.375 0.5H5.625C2.5184 0.5 0 3.0184 0 6.125V18.875C0 21.9816 2.5184 24.5 5.625 24.5H18.375C21.4816 24.5 24 21.9816 24 18.875V6.125C24 3.0184 21.4816 0.5 18.375 0.5Z" fill="#F4F2ED"/>
<path d="M3.90338 19.535H6.88631V12.2907L2.625 9.09473V18.2566C2.625 18.964 3.19819 19.535 3.90338 19.535Z" fill="#4285F4"/>
<path d="M17.1136 19.5351H20.0966C20.804 19.5351 21.375 18.9619 21.375 18.2567V9.09473L17.1136 12.2908" fill="#34A853"/>
<path d="M17.1136 6.75085V12.2906L21.375 9.0947V7.38995C21.375 5.80904 19.5703 4.90773 18.3068 5.85592" fill="#FBBC04"/>
<path d="M6.88641 12.2904V6.75068L12 10.5857L17.1136 6.75049V12.2903L12 16.1256" fill="#EA4335"/>
<path d="M2.625 7.38995V9.09451L6.88631 12.2905V6.75085L5.69316 5.85592C4.42753 4.90773 2.625 5.80904 2.625 7.38995Z" fill="#C5221F"/>
</g>
<defs>
<clipPath id="clip0_91_168">
<rect width="24" height="24" fill="white" transform="translate(0 0.5)"/>
</clipPath>
</defs>
</svg>
