<svg width="25" height="25" viewBox="0 0 25 25" fill="none" xmlns="http://www.w3.org/2000/svg">
<g clip-path="url(#clip0_76_164)">
<path d="M18.875 0.5H6.125C3.0184 0.5 0.5 3.0184 0.5 6.125V18.875C0.5 21.9816 3.0184 24.5 6.125 24.5H18.875C21.9816 24.5 24.5 21.9816 24.5 18.875V6.125C24.5 3.0184 21.9816 0.5 18.875 0.5Z" fill="#F4F2ED"/>
<path d="M21.875 17.6504C21.6021 17.7538 21.3007 17.7536 21.0279 17.6499C20.7552 17.5461 20.5298 17.346 20.3946 17.0874C19.5449 15.8155 18.6067 14.601 17.7049 13.3604L17.3139 12.8391C16.2401 14.2778 15.1662 15.6591 14.1863 17.0927C14.0586 17.3398 13.8455 17.5321 13.5866 17.6338C13.3277 17.7355 13.0406 17.7395 12.7789 17.6452L16.8083 12.2397L13.0603 7.35532C13.3301 7.25791 13.6253 7.25658 13.8959 7.35154C14.1666 7.44651 14.3962 7.63195 14.546 7.87657C15.4165 9.14857 16.3809 10.3631 17.3399 11.6507C18.3043 10.3735 19.2582 9.15373 20.1496 7.89223C20.2779 7.64906 20.4912 7.46157 20.7488 7.36545C21.0064 7.26933 21.2903 7.2713 21.5466 7.37098L20.0922 9.29969C19.4407 10.1598 18.7995 11.0251 18.1219 11.8643C18.0673 11.9132 18.0236 11.9731 17.9937 12.04C17.9638 12.1069 17.9483 12.1794 17.9483 12.2527C17.9483 12.326 17.9638 12.3985 17.9937 12.4654C18.0236 12.5323 18.0673 12.5921 18.1219 12.641C19.3677 14.2935 20.6031 15.9511 21.875 17.6504ZM3.125 12.1719C3.2345 11.6507 3.30219 11.0824 3.45341 10.5508C4.35519 7.34501 8.03009 6.01048 10.5583 7.99657C12.0387 9.15907 12.4088 10.8063 12.3358 12.6619H3.99556C3.86 15.9772 6.25259 17.9789 9.31241 16.9572C9.80877 16.7797 10.2531 16.4813 10.6053 16.0891C10.9575 15.6968 11.2065 15.223 11.3297 14.7105C11.4913 14.1892 11.752 14.1006 12.2472 14.2518C12.1656 14.8863 11.9412 15.4942 11.5909 16.0296C11.2406 16.565 10.7735 17.014 10.2247 17.3429C9.31792 17.8388 8.27753 18.0353 7.25233 17.9043C6.22713 17.7732 5.26964 17.3213 4.51681 16.6131C3.77202 15.7757 3.32167 14.7175 3.2345 13.6002C3.2345 13.423 3.16672 13.2457 3.13025 13.0789C3.1268 12.7766 3.12505 12.4743 3.125 12.1719ZM4.00597 11.9478H11.5487C11.5017 9.54476 9.98487 7.84019 7.96241 7.82463C5.71053 7.79332 4.09981 9.46132 4.00072 11.9374L4.00597 11.9478Z" fill="#0F0F0F"/>
</g>
<defs>
<clipPath id="clip0_76_164">
<rect width="24" height="24" fill="white" transform="translate(0.5 0.5)"/>
</clipPath>
</defs>
</svg>
