<svg width="25" height="25" viewBox="0 0 25 25" fill="none" xmlns="http://www.w3.org/2000/svg">
<g clip-path="url(#clip0_76_164)">
<path d="M24.2506 18.9576C23.3956 19.1751 22.8669 18.967 22.3925 18.2545C21.3275 16.6589 20.1519 15.1364 19.0175 13.5857C18.8713 13.3851 18.7194 13.1882 18.53 12.9389C17.1875 14.7501 15.8469 16.4751 14.5888 18.2695C14.1388 18.9107 13.6663 19.1901 12.8263 18.9632L17.8738 12.1889L13.175 6.07075C13.9831 5.91325 14.5419 5.99387 15.0369 6.71762C16.13 8.31512 17.3356 9.83575 18.5375 11.4445C19.7469 9.84137 20.9375 8.31887 22.0625 6.73637C22.5144 6.09512 23 5.85137 23.8119 6.08762C23.1969 6.90325 22.595 7.70575 21.9894 8.50262C21.1719 9.577 20.3694 10.6645 19.5219 11.7164C19.22 12.0914 19.2688 12.3351 19.5388 12.6895C21.1063 14.7501 22.655 16.8314 24.2506 18.9576ZM0.749399 12.0764C0.884399 11.3995 0.974399 10.7095 1.1619 10.0457C2.2869 6.02762 6.8994 4.357 10.0681 6.847C11.9244 8.30762 12.3856 10.3664 12.2938 12.6876H1.83127C1.67377 16.852 4.6719 19.3664 8.49315 18.0839C9.83377 17.6339 10.6231 16.5839 11.0188 15.2714C11.2194 14.6132 11.5513 14.5101 12.17 14.6976C11.8531 16.3401 11.135 17.7126 9.63503 18.5714C7.38503 19.8576 4.17315 19.4414 2.48377 17.6545C1.48627 16.6045 1.06252 15.2976 0.875024 13.8857C0.846899 13.6607 0.788774 13.4395 0.743774 13.2164C0.747524 12.8364 0.749399 12.4564 0.749399 12.0764ZM1.85002 11.797H11.3056C11.2438 8.78575 9.36877 6.64637 6.80565 6.62762C3.99315 6.60512 1.9719 8.69387 1.85002 11.797Z" fill="black"/>
</g>
<defs>
<clipPath id="clip0_76_164">
<rect width="24" height="24" fill="white" transform="translate(0.5 0.5)"/>
</clipPath>
</defs>
</svg>
