<svg width="25" height="25" viewBox="0 0 25 25" fill="none" xmlns="http://www.w3.org/2000/svg">
<path d="M9.5 3.5H12.5V9.5H9.5C8.70435 9.5 7.94129 9.18393 7.37868 8.62132C6.81607 8.05871 6.5 7.29565 6.5 6.5C6.5 5.70435 6.81607 4.94129 7.37868 4.37868C7.94129 3.81607 8.70435 3.5 9.5 3.5Z" fill="#F4511E"/>
<path d="M15.5 9.5H12.5V3.5H15.5C16.2956 3.5 17.0587 3.81607 17.6213 4.37868C18.1839 4.94129 18.5 5.70435 18.5 6.5C18.5 7.29565 18.1839 8.05871 17.6213 8.62132C17.0587 9.18393 16.2956 9.5 15.5 9.5Z" fill="#FF8A65"/>
<path d="M12.5 12.5C12.5 14.1569 13.8431 15.5 15.5 15.5C17.1569 15.5 18.5 14.1569 18.5 12.5C18.5 10.8431 17.1569 9.5 15.5 9.5C13.8431 9.5 12.5 10.8431 12.5 12.5Z" fill="#29B6F6"/>
<path d="M9.5 9.5H12.5V15.5H9.5C8.70435 15.5 7.94129 15.1839 7.37868 14.6213C6.81607 14.0587 6.5 13.2956 6.5 12.5C6.5 11.7044 6.81607 10.9413 7.37868 10.3787C7.94129 9.81607 8.70435 9.5 9.5 9.5Z" fill="#7C4DFF"/>
<path d="M9.5 15.5H12.5V18.5C12.5 19.2956 12.1839 20.0587 11.6213 20.6213C11.0587 21.1839 10.2956 21.5 9.5 21.5C8.70435 21.5 7.94129 21.1839 7.37868 20.6213C6.81607 20.0587 6.5 19.2956 6.5 18.5C6.5 17.7044 6.81607 16.9413 7.37868 16.3787C7.94129 15.8161 8.70435 15.5 9.5 15.5Z" fill="#00E676"/>
</svg>
