<svg width="24" height="25" viewBox="0 0 24 25" fill="none" xmlns="http://www.w3.org/2000/svg">
<g clip-path="url(#clip0_76_160)">
<path d="M18.375 0.5H5.625C2.5184 0.5 0 3.0184 0 6.125V18.875C0 21.9816 2.5184 24.5 5.625 24.5H18.375C21.4816 24.5 24 21.9816 24 18.875V6.125C24 3.0184 21.4816 0.5 18.375 0.5Z" fill="#E14E1D"/>
<path d="M4.5 4.0625L5.30719 13.1181H15.6863L15.338 17.0022L11.9962 17.9057L8.66062 17.0035L8.43759 14.5095H5.43187L5.86172 19.3171L11.9955 21.0208L18.1371 19.3171L18.9605 10.1239H8.046L7.77197 7.05734H19.2318L19.5 4.0625H4.5Z" fill="white"/>
<path d="M12 4.0625H4.5L5.30719 13.1181H12V10.1239H8.046L7.77197 7.05734H12V4.0625ZM12 17.9044L11.9962 17.9057L8.66062 17.0035L8.43759 14.5095H5.43187L5.86172 19.3171L11.9955 21.0208L12.0001 21.0194L12 17.9044Z" fill="#EBEBEB"/>
</g>
<defs>
<clipPath id="clip0_76_160">
<rect width="24" height="24" fill="white" transform="translate(0 0.5)"/>
</clipPath>
</defs>
</svg>
