<svg width="24" height="25" viewBox="0 0 24 25" fill="none" xmlns="http://www.w3.org/2000/svg">
<path d="M3 3.5V21.5H21V3.5H3ZM12 12.5H13.5V18.5C13.4988 18.8975 13.3404 19.2783 13.0593 19.5593C12.7783 19.8404 12.3975 19.9988 12 20H10.5C10.1025 19.9988 9.7217 19.8404 9.44065 19.5593C9.1596 19.2783 9.00119 18.8975 9 18.5V17H10.5V18.5H12V12.5ZM16.5 12.5H19.5V14H16.5V15.5H18C18.3975 15.5012 18.7783 15.6596 19.0593 15.9407C19.3404 16.2217 19.4988 16.6025 19.5 17V18.5C19.4988 18.8975 19.3404 19.2783 19.0593 19.5593C18.7783 19.8404 18.3975 19.9988 18 20H15V18.5H18V17H16.5C16.1025 16.9988 15.7217 16.8404 15.4407 16.5593C15.1596 16.2783 15.0012 15.8975 15 15.5V14C15.0012 13.6025 15.1596 13.2217 15.4407 12.9407C15.7217 12.6596 16.1025 12.5012 16.5 12.5Z" fill="#FFCA28"/>
</svg>
