<svg width="25" height="25" viewBox="0 0 25 25" fill="none" xmlns="http://www.w3.org/2000/svg">
<g clip-path="url(#clip0_68_52)">
<path d="M18.875 0.5H6.125C3.0184 0.5 0.5 3.0184 0.5 6.125V18.875C0.5 21.9816 3.0184 24.5 6.125 24.5H18.875C21.9816 24.5 24.5 21.9816 24.5 18.875V6.125C24.5 3.0184 21.9816 0.5 18.875 0.5Z" fill="#023430"/>
<path d="M16.5475 10.5867C15.5596 6.22906 13.5009 5.069 12.9757 4.24897C12.759 3.88778 12.5672 3.51225 12.4015 3.125C12.3737 3.51219 12.3227 3.75594 11.9937 4.04956C11.333 4.63859 8.52706 6.92516 8.29091 11.8764C8.07088 16.4928 11.6847 19.3393 12.162 19.6336C12.5292 19.8143 12.9763 19.6375 13.1944 19.4716C14.9364 18.2761 17.3165 15.0888 16.5493 10.5867" fill="#10AA50"/>
<path d="M12.5511 17.1753C12.4602 18.3179 12.395 18.9819 12.164 19.6348C12.164 19.6348 12.3156 20.7226 12.4221 21.8749H12.7989C12.8889 21.0635 13.0261 20.258 13.2099 19.4625C12.7221 19.2225 12.5698 18.1779 12.5511 17.1753Z" fill="#B8C4C2"/>
<path d="M13.2092 19.4634C12.7163 19.2356 12.5737 18.1691 12.5518 17.1755C12.6736 15.5365 12.7091 13.8922 12.6583 12.2494C12.6324 11.3875 12.6704 4.26583 12.4459 3.22314C12.5994 3.57634 12.7764 3.91886 12.9757 4.24839C13.5009 5.06908 15.5603 6.22915 16.5475 10.5867C17.3165 15.0812 14.9493 18.2601 13.2092 19.4634Z" fill="#12924F"/>
</g>
<defs>
<clipPath id="clip0_68_52">
<rect width="24" height="24" fill="white" transform="translate(0.5 0.5)"/>
</clipPath>
</defs>
</svg>
