<svg width="24" height="25" viewBox="0 0 24 25" fill="none" xmlns="http://www.w3.org/2000/svg">
<g clip-path="url(#clip0_76_146)">
<path d="M12 24.5C18.6274 24.5 24 19.1274 24 12.5C24 5.87258 18.6274 0.5 12 0.5C5.37258 0.5 0 5.87258 0 12.5C0 19.1274 5.37258 24.5 12 24.5Z" fill="black"/>
<path d="M19.9345 21.5026L9.21882 7.69995H7.20001V17.296H8.81514V9.75101L18.6664 22.4793C19.1103 22.1823 19.534 21.856 19.9345 21.5026Z" fill="url(#paint0_linear_76_146)"/>
<path d="M15.3334 7.69995H16.9333V17.3H15.3334V7.69995Z" fill="url(#paint1_linear_76_146)"/>
</g>
<defs>
<linearGradient id="paint0_linear_76_146" x1="14.5333" y1="16.0333" x2="19.2666" y2="21.8999" gradientUnits="userSpaceOnUse">
<stop stop-color="white"/>
<stop offset="1" stop-color="white" stop-opacity="0"/>
</linearGradient>
<linearGradient id="paint1_linear_76_146" x1="16.1333" y1="7.69994" x2="16.1065" y2="14.7499" gradientUnits="userSpaceOnUse">
<stop stop-color="white"/>
<stop offset="1" stop-color="white" stop-opacity="0"/>
</linearGradient>
<clipPath id="clip0_76_146">
<rect width="24" height="24" fill="white" transform="translate(0 0.5)"/>
</clipPath>
</defs>
</svg>
