<svg width="25" height="25" viewBox="0 0 25 25" fill="none" xmlns="http://www.w3.org/2000/svg">
<g clip-path="url(#clip0_76_137)">
<path d="M18.875 0.5H6.125C3.0184 0.5 0.5 3.0184 0.5 6.125V18.875C0.5 21.9816 3.0184 24.5 6.125 24.5H18.875C21.9816 24.5 24.5 21.9816 24.5 18.875V6.125C24.5 3.0184 21.9816 0.5 18.875 0.5Z" fill="#F4F2ED"/>
<path d="M11.7386 3.41714C12.1997 3.15323 12.8003 3.15201 13.261 3.41714C15.5787 4.72682 17.8971 6.03436 20.2144 7.34479C20.6504 7.59033 20.9418 8.07539 20.9374 8.57761V16.4568C20.9407 16.9799 20.6204 17.4765 20.1605 17.7164C17.8504 19.0189 15.5415 20.3229 13.2317 21.6254C12.7612 21.8944 12.1486 21.8737 11.6926 21.5825C11 21.1811 10.3063 20.7815 9.61365 20.3804C9.47209 20.2961 9.31253 20.229 9.21259 20.0917C9.30099 19.9726 9.45896 19.9578 9.58731 19.9058C9.87634 19.8138 10.1419 19.6663 10.4074 19.5231C10.4747 19.4772 10.5566 19.4948 10.621 19.5359C11.2132 19.8754 11.8003 20.2249 12.3945 20.5612C12.5212 20.6344 12.6496 20.5372 12.7579 20.4768C15.0248 19.1955 17.2945 17.9192 19.5611 16.6376C19.6451 16.5972 19.6915 16.508 19.6847 16.416C19.6862 13.8168 19.685 11.2172 19.6855 8.61792C19.6951 8.51367 19.6347 8.41767 19.5403 8.37492C17.2382 7.07845 14.9372 5.78011 12.6356 4.48336C12.5957 4.45596 12.5485 4.44125 12.5001 4.44117C12.4517 4.44109 12.4044 4.45563 12.3645 4.48289C10.0627 5.78011 7.76228 7.07976 5.46053 8.37604C5.36649 8.41889 5.3034 8.51329 5.31456 8.61792C5.31503 11.2172 5.31456 13.8168 5.31456 16.4164C5.31054 16.4613 5.32039 16.5064 5.34279 16.5455C5.36519 16.5846 5.39905 16.616 5.43981 16.6352C6.05396 16.9835 6.66896 17.3294 7.28359 17.6765C7.6299 17.8628 8.05496 17.9736 8.43653 17.8308C8.77309 17.7101 9.00906 17.3665 9.00268 17.0091C9.00587 14.4251 9.00109 11.8407 9.00503 9.25692C8.99659 9.14226 9.10543 9.04748 9.21699 9.05836C9.51212 9.05629 9.80762 9.05432 10.1027 9.05911C10.2259 9.05629 10.3107 9.17986 10.2955 9.29536C10.2943 11.8958 10.2987 14.4962 10.2935 17.0966C10.2943 17.7897 10.0096 18.5438 9.36849 18.8829C8.57884 19.2919 7.60271 19.2052 6.82253 18.813C6.14715 18.4758 5.50253 18.0779 4.83915 17.7168C4.37809 17.4782 4.05934 16.9796 4.06262 16.4569V8.57761C4.05774 8.06498 4.36093 7.57111 4.81028 7.32914C7.11999 6.02573 9.42934 4.7212 11.7386 3.41714Z" fill="#81CD39"/>
<path d="M13.7536 8.87507C14.761 8.81019 15.8394 8.83663 16.7458 9.33294C17.4478 9.71319 17.8368 10.5114 17.8492 11.2911C17.8296 11.3962 17.7196 11.4542 17.6192 11.447C17.327 11.4466 17.0346 11.451 16.7424 11.445C16.6183 11.4498 16.5463 11.3355 16.5308 11.2259C16.4468 10.8528 16.2433 10.4833 15.8922 10.3033C15.3531 10.0335 14.7282 10.0471 14.1403 10.0528C13.7113 10.0754 13.2498 10.1127 12.8863 10.3649C12.6072 10.5561 12.5224 10.942 12.622 11.2528C12.7159 11.4759 12.9734 11.5479 13.1842 11.6143C14.3983 11.9318 15.6847 11.9001 16.8754 12.3179C17.3685 12.4883 17.8508 12.8195 18.0195 13.3357C18.2403 14.0276 18.1436 14.8544 17.6513 15.4098C17.2521 15.8668 16.6708 16.1157 16.0909 16.2508C15.3195 16.4228 14.519 16.4272 13.7356 16.3508C12.999 16.2668 12.2324 16.0733 11.6638 15.5714C11.1776 15.1492 10.9401 14.4913 10.9636 13.8564C10.9693 13.7491 11.076 13.6743 11.1788 13.6831C11.4731 13.6808 11.7674 13.6799 12.0617 13.6836C12.1793 13.6752 12.2665 13.7768 12.2725 13.8876C12.3268 14.243 12.4603 14.6161 12.7703 14.8268C13.3685 15.2128 14.1192 15.1863 14.8041 15.1971C15.3715 15.172 16.0085 15.1644 16.4716 14.7893C16.7159 14.5753 16.7883 14.2174 16.7223 13.9095C16.6508 13.6496 16.3788 13.5284 16.1453 13.4492C14.9469 13.0702 13.646 13.2077 12.4592 12.779C11.9773 12.6088 11.5114 12.2868 11.3263 11.7918C11.0681 11.0912 11.1864 10.2246 11.7302 9.68807C12.2605 9.15416 13.0258 8.94857 13.7536 8.87507Z" fill="#81CD39"/>
</g>
<defs>
<clipPath id="clip0_76_137">
<rect width="24" height="24" fill="white" transform="translate(0.5 0.5)"/>
</clipPath>
</defs>
</svg>
