<svg width="25" height="25" viewBox="0 0 25 25" fill="none" xmlns="http://www.w3.org/2000/svg">
<path d="M12.5 22.5C6.977 22.5 2.5 18.023 2.5 12.5C2.5 6.977 6.977 2.5 12.5 2.5C18.023 2.5 22.5 6.977 22.5 12.5C22.5 18.023 18.023 22.5 12.5 22.5ZM16.5 8.5H15.15V12.5H16.5V8.5ZM9.846 10.21L15.905 18.038L16.959 17.229L10.183 8.5H8.5V16.497H9.846V10.21Z" fill="#10121B"/>
<path d="M12.5 14.3555C13.5355 14.3555 14.375 13.516 14.375 12.4805C14.375 11.4449 13.5355 10.6055 12.5 10.6055C11.4645 10.6055 10.625 11.4449 10.625 12.4805C10.625 13.516 11.4645 14.3555 12.5 14.3555Z" fill="#00D8FF"/>
<path d="M12.5 16.7794C10.2464 16.8337 7.99839 16.5299 5.84 15.8794C4.84297 15.5633 3.91305 15.0654 3.09725 14.4109C2.78584 14.1874 2.52652 13.8991 2.33711 13.5658C2.1477 13.2326 2.0327 12.8623 2 12.4804C2 11.2406 3.362 10.0256 5.6435 9.23063C7.85968 8.52677 10.175 8.18538 12.5 8.21963C14.794 8.18791 17.0783 8.52314 19.2665 9.21263C20.2266 9.5191 21.1249 9.99289 21.92 10.6121C22.2257 10.8256 22.4808 11.1036 22.6674 11.4264C22.854 11.7492 22.9675 12.109 23 12.4804C23 13.7689 21.4775 15.0746 19.025 15.8861C16.9084 16.5157 14.7079 16.8169 12.5 16.7794ZM12.5 9.11663C10.2756 9.08756 8.06077 9.4121 5.93825 10.0781C3.83825 10.8109 2.897 11.8129 2.897 12.4781C2.897 13.1741 3.90875 14.2684 6.13025 15.0281C8.19503 15.6476 10.345 15.936 12.5 15.8824C14.6123 15.9202 16.7179 15.6343 18.7438 15.0349C21.05 14.2706 22.1 13.1749 22.1 12.4804C22.062 12.2421 21.9751 12.0142 21.8447 11.8112C21.7144 11.6082 21.5434 11.4343 21.3425 11.3006C20.6313 10.7511 19.8287 10.3311 18.9718 10.0601C16.8784 9.40342 14.6937 9.08492 12.5 9.11663Z" fill="#00D8FF"/>
<path d="M8.24001 21.8321C7.89014 21.8401 7.5444 21.7552 7.23801 21.5861C6.16401 20.9666 5.79201 19.1801 6.24276 16.8064C6.74031 14.5349 7.6014 12.3586 8.79276 10.3616C9.91107 8.35864 11.3424 6.54728 13.0325 4.99614C13.7776 4.31747 14.6368 3.77588 15.5705 3.39639C15.9084 3.23854 16.2768 3.15674 16.6498 3.15674C17.0227 3.15674 17.3911 3.23854 17.729 3.39639C18.8458 4.03989 19.2155 6.01089 18.6943 8.54064C18.182 10.6891 17.3432 12.7462 16.2073 14.6404C15.1284 16.6198 13.7422 18.4154 12.1003 19.9601C11.3284 20.6657 10.4325 21.2223 9.45801 21.6019C9.06798 21.747 8.65612 21.8249 8.24001 21.8321ZM9.56976 10.8071C8.43343 12.7194 7.60814 14.8001 7.12476 16.9714C6.71001 19.1576 7.10826 20.4724 7.68726 20.8069C8.28726 21.1541 9.74376 20.8249 11.5123 19.2799C13.0799 17.8002 14.403 16.0814 15.4325 14.1874C16.5207 12.3765 17.3253 10.4097 17.8183 8.35539C18.3088 5.97414 17.885 4.51614 17.2835 4.16964C17.058 4.08339 16.8172 4.0448 16.576 4.05629C16.3349 4.06777 16.0988 4.1291 15.8825 4.23639C15.0513 4.57948 14.2871 5.06644 13.625 5.67489C12.0104 7.16079 10.6432 8.89485 9.57501 10.8116L9.56976 10.8071Z" fill="#00D8FF"/>
<path d="M16.7578 21.842C15.7415 21.842 14.4508 21.227 13.1068 20.0712C11.3872 18.5058 9.93172 16.673 8.79651 14.6435C7.61984 12.6741 6.76556 10.5293 6.26601 8.29023C6.04987 7.30505 6.00975 6.2894 6.14751 5.29023C6.1799 4.9197 6.29295 4.56075 6.47874 4.23853C6.66453 3.91631 6.91855 3.63864 7.22301 3.42498C8.33826 2.77923 10.2305 3.44298 12.1618 5.15748C13.7672 6.67412 15.1306 8.42801 16.2043 10.358C17.3803 12.2813 18.2435 14.3792 18.7618 16.5732C18.9876 17.5945 19.0224 18.6488 18.8645 19.6827C18.8271 20.0641 18.7076 20.4328 18.5141 20.7636C18.3207 21.0944 18.058 21.3794 17.744 21.599C17.4425 21.7657 17.1022 21.8495 16.7578 21.842ZM9.57276 14.192C10.6619 16.1314 12.0522 17.8856 13.6918 19.3887C15.3785 20.84 16.7165 21.152 17.2918 20.8137C17.8918 20.465 18.3343 19.0415 17.8783 16.7382C17.3788 14.6434 16.5508 12.6408 15.425 10.805C14.4004 8.95783 13.0991 7.27838 11.5663 5.82498C9.74826 4.21098 8.27376 3.85023 7.67301 4.19823C7.48587 4.35049 7.33228 4.53984 7.22192 4.75437C7.11156 4.9689 7.04681 5.20395 7.03176 5.44473C6.91261 6.3358 6.95145 7.2409 7.14651 8.11848C7.62717 10.2597 8.44647 12.3105 9.57351 14.1935L9.57276 14.192Z" fill="#00D8FF"/>
</svg>
