<svg width="25" height="25" viewBox="0 0 25 25" fill="none" xmlns="http://www.w3.org/2000/svg">
<g clip-path="url(#clip0_213_156)">
<path d="M12.5 24.5C19.1274 24.5 24.5 19.1274 24.5 12.5C24.5 5.87258 19.1274 0.5 12.5 0.5C5.87258 0.5 0.5 5.87258 0.5 12.5C0.5 19.1274 5.87258 24.5 12.5 24.5Z" fill="#FF4500"/>
<path d="M20.4828 12.6144C20.4828 11.6416 19.6962 10.8691 18.7375 10.8691C18.2846 10.8684 17.849 11.0427 17.5215 11.3555C16.3198 10.4971 14.6745 9.93924 12.8434 9.86771L13.6444 6.11949L16.2481 6.6773C16.2769 7.33543 16.8204 7.86483 17.4929 7.86483C18.1796 7.86483 18.7375 7.30702 18.7375 6.62002C18.7375 5.93339 18.1796 5.37549 17.4929 5.37549C17.0066 5.37549 16.5772 5.66161 16.3769 6.07655L13.4729 5.46136C13.3871 5.44693 13.3012 5.46136 13.2439 5.5043C13.1724 5.54724 13.1295 5.61868 13.1154 5.70455L12.2281 9.88186C10.3684 9.93924 8.69449 10.4971 7.47856 11.3699C7.15105 11.0571 6.71541 10.8828 6.26253 10.8835C5.28968 10.8835 4.51718 11.6701 4.51718 12.6288C4.51718 13.344 4.94628 13.9448 5.54731 14.2169C5.51812 14.3918 5.50376 14.5688 5.50437 14.7462C5.50437 17.4355 8.63749 19.6245 12.5001 19.6245C16.3628 19.6245 19.4959 17.4499 19.4959 14.7462C19.4959 14.5689 19.4816 14.3919 19.453 14.2169C20.0537 13.9448 20.4828 13.3296 20.4828 12.6144ZM8.49424 13.8589C8.49424 13.1723 9.05206 12.6144 9.73906 12.6144C10.4257 12.6144 10.9836 13.1722 10.9836 13.8589C10.9836 14.5456 10.4258 15.1037 9.73906 15.1037C9.05215 15.1178 8.49424 14.5456 8.49424 13.8589ZM15.4615 17.1637C14.6031 18.0222 12.9721 18.0795 12.5001 18.0795C12.0137 18.0795 10.3828 18.0077 9.53853 17.1637C9.40999 17.035 9.40999 16.8346 9.53853 16.7059C9.66734 16.5774 9.86759 16.5774 9.9964 16.7059C10.5402 17.2497 11.6847 17.4355 12.5001 17.4355C13.3155 17.4355 14.4743 17.2496 15.0036 16.7059C15.1324 16.5774 15.3327 16.5774 15.4615 16.7059C15.5758 16.8346 15.5758 17.035 15.4615 17.1637ZM15.2324 15.1179C14.5457 15.1179 13.9879 14.5601 13.9879 13.8734C13.9879 13.1866 14.5457 12.6288 15.2324 12.6288C15.9193 12.6288 16.4772 13.1866 16.4772 13.8734C16.4772 14.5456 15.9193 15.1179 15.2324 15.1179Z" fill="white"/>
</g>
<defs>
<clipPath id="clip0_213_156">
<rect width="24" height="24" fill="white" transform="translate(0.5 0.5)"/>
</clipPath>
</defs>
</svg>
