<svg width="25" height="25" viewBox="0 0 25 25" fill="none" xmlns="http://www.w3.org/2000/svg">
<g clip-path="url(#clip0_76_208)">
<path d="M12.5007 5.30029C9.30067 5.30029 7.30136 6.89967 6.50073 10.0997C7.70036 8.50017 9.10079 7.90036 10.7004 8.30029C11.6137 8.52792 12.2664 9.19017 12.9892 9.92404C14.1655 11.1179 15.5272 12.4999 18.5007 12.4999C21.7006 12.4999 23.7001 10.9004 24.5007 7.69954C23.3007 9.29992 21.9008 9.90004 20.3009 9.49992C19.3878 9.27211 18.7359 8.61004 18.0121 7.87617C16.8365 6.68236 15.4752 5.30029 12.5007 5.30029ZM6.50073 12.4999C3.30086 12.4999 1.30136 14.0995 0.500732 17.3003C1.70061 15.6999 3.10048 15.0998 4.70036 15.4999C5.61367 15.7277 6.26636 16.3898 6.98917 17.1237C8.16554 18.3175 9.52717 19.6995 12.5007 19.6995C15.7006 19.6995 17.7001 18.1002 18.5007 14.9001C17.3007 16.4997 15.9008 17.0995 14.3009 16.6995C13.3878 16.4719 12.7359 15.8097 12.0121 15.0758C10.8365 13.882 9.47523 12.4999 6.50073 12.4999Z" fill="#38BDF8"/>
</g>
<defs>
<clipPath id="clip0_76_208">
<rect width="24" height="24" fill="white" transform="translate(0.5 0.5)"/>
</clipPath>
</defs>
</svg>
