<svg width="25" height="27" viewBox="0 0 25 27" fill="none" xmlns="http://www.w3.org/2000/svg">
<g clip-path="url(#clip0_233_130)">
<path d="M3.92857 1.6875C2.0375 1.6875 0.5 3.20098 0.5 5.0625V21.9375C0.5 23.799 2.0375 25.3125 3.92857 25.3125H21.0714C22.9625 25.3125 24.5 23.799 24.5 21.9375V5.0625C24.5 3.20098 22.9625 1.6875 21.0714 1.6875H3.92857ZM16.2607 12.883C17.3054 13.3734 18.0661 14.1223 18.4679 15.0398C19.025 16.3213 19.0786 18.4096 17.3857 20.0707C16.0893 21.3416 14.5196 21.9164 12.2911 21.9322H12.2804C9.77321 21.9164 7.84464 21.0832 6.55357 19.4643C5.40179 18.0246 4.80714 16.0154 4.78571 13.5V13.4895C4.80714 10.974 5.40179 8.97012 6.55357 7.5252C7.85 5.90625 9.77857 5.07305 12.2804 5.05723H12.2911C14.8036 5.07305 16.7536 5.90098 18.0875 7.51465C18.7464 8.31094 19.2286 9.2707 19.5339 10.3834L18.0929 10.7631C17.8411 9.85605 17.4554 9.08086 16.9464 8.46387C15.9071 7.20352 14.3375 6.56016 12.2857 6.54434C10.25 6.56016 8.70714 7.20352 7.70536 8.45332C6.76786 9.6293 6.28036 11.3221 6.26429 13.4895C6.28036 15.6568 6.76786 17.3549 7.70536 18.5256C8.70714 19.7807 10.2446 20.424 12.2857 20.4346C14.1232 20.4187 15.3339 19.9916 16.3464 18.9949C17.4982 17.8611 17.4768 16.4689 17.1071 15.6199C16.8929 15.1242 16.4964 14.7076 15.9661 14.3912C15.8375 15.3404 15.5429 16.0893 15.0821 16.6693C14.4714 17.434 13.5982 17.8506 12.4893 17.9086C11.6482 17.9561 10.8393 17.7557 10.2071 17.3443C9.4625 16.8592 9.02857 16.1209 8.98036 15.2613C8.88929 13.5633 10.2554 12.3451 12.3821 12.2238C13.1375 12.1816 13.8446 12.2133 14.4982 12.324C14.4125 11.802 14.2357 11.3906 13.9732 11.09C13.6143 10.6787 13.0571 10.4678 12.3232 10.4625H12.3018C11.7125 10.4625 10.9089 10.626 10.3946 11.3906L9.1625 10.5574C9.84821 9.53437 10.9625 8.97012 12.2964 8.97012H12.3286C14.5679 8.98594 15.8964 10.357 16.0304 12.7564C16.1054 12.7881 16.1804 12.8197 16.2554 12.8566L16.2607 12.883ZM12.4143 16.4426C13.325 16.3951 14.3643 16.0418 14.5411 13.8691C14.0696 13.7689 13.5446 13.7162 12.9875 13.7162C12.8161 13.7162 12.6446 13.7215 12.4732 13.732C10.9411 13.8164 10.4321 14.5494 10.4696 15.2033C10.5179 16.084 11.4875 16.4953 12.4196 16.4479L12.4143 16.4426Z" fill="white"/>
</g>
<defs>
<clipPath id="clip0_233_130">
<rect width="24" height="27" fill="white" transform="translate(0.5)"/>
</clipPath>
</defs>
</svg>
