<svg width="25" height="25" viewBox="0 0 25 25" fill="none" xmlns="http://www.w3.org/2000/svg">
<g clip-path="url(#clip0_91_195)">
<path d="M1.10121 12.4461C1.10065 14.4626 1.62754 16.4315 2.6294 18.167L1.0054 24.0965L7.07349 22.5054C8.75185 23.4191 10.6323 23.8978 12.5433 23.898H12.5483C18.8567 23.898 23.9918 18.7647 23.9945 12.4552C23.9957 9.39777 22.8061 6.52279 20.6448 4.35981C18.4839 2.19702 15.61 1.0053 12.5478 1.00391C6.2387 1.00391 1.10391 6.13693 1.1013 12.4461" fill="url(#paint0_linear_91_195)"/>
<path d="M0.692558 12.4425C0.691907 14.5315 1.23767 16.5709 2.27526 18.3684L0.593023 24.5105L6.8787 22.8624C8.6106 23.8067 10.5606 24.3045 12.5447 24.3053H12.5499C19.0846 24.3053 24.4042 18.9873 24.407 12.452C24.4081 9.28473 23.1757 6.3064 20.9372 4.06594C18.6984 1.82575 15.7217 0.591146 12.5499 0.589844C6.01405 0.589844 0.695163 5.90705 0.692558 12.4425ZM4.43591 18.0589L4.20121 17.6863C3.2146 16.1176 2.69386 14.3047 2.6946 12.4432C2.69665 7.01115 7.11749 2.5917 12.5536 2.5917C15.1861 2.59282 17.6602 3.61905 19.521 5.48101C21.3818 7.34315 22.4057 9.8185 22.405 12.4512C22.4026 17.8833 17.9817 22.3033 12.5499 22.3033H12.546C10.7773 22.3024 9.0427 21.8274 7.52995 20.9298L7.16995 20.7164L3.43991 21.6943L4.43591 18.0589Z" fill="url(#paint1_linear_91_195)"/>
<path d="M9.58633 7.48755C9.36437 6.99425 9.13079 6.98429 8.91972 6.97564C8.74688 6.9682 8.5493 6.96876 8.35191 6.96876C8.15433 6.96876 7.8333 7.04309 7.56195 7.33936C7.29033 7.63592 6.52493 8.35257 6.52493 9.81015C6.52493 11.2677 7.58661 12.6765 7.73461 12.8743C7.88279 13.0718 9.78419 16.1587 12.7955 17.3462C15.2982 18.3331 15.8075 18.1369 16.3507 18.0874C16.894 18.0381 18.1036 17.3709 18.3504 16.6791C18.5974 15.9874 18.5974 15.3944 18.5233 15.2705C18.4493 15.1471 18.2517 15.0729 17.9554 14.9249C17.6592 14.7768 16.2025 14.0599 15.931 13.961C15.6593 13.8622 15.4619 13.8129 15.2643 14.1096C15.0667 14.4058 14.4993 15.0729 14.3264 15.2705C14.1537 15.4686 13.9807 15.4932 13.6846 15.345C13.3881 15.1964 12.434 14.8839 11.302 13.8747C10.4212 13.0894 9.82661 12.1196 9.65377 11.823C9.48093 11.5268 9.63526 11.3662 9.78381 11.2186C9.91693 11.0859 10.0802 10.8727 10.2285 10.6997C10.3762 10.5267 10.4255 10.4033 10.5243 10.2057C10.6232 10.0079 10.5737 9.8349 10.4997 9.68671C10.4255 9.53853 9.84977 8.07332 9.58633 7.48755Z" fill="white"/>
</g>
<defs>
<linearGradient id="paint0_linear_91_195" x1="1150.46" y1="2310.26" x2="1150.46" y2="1.00391" gradientUnits="userSpaceOnUse">
<stop stop-color="#1FAF38"/>
<stop offset="1" stop-color="#60D669"/>
</linearGradient>
<linearGradient id="paint1_linear_91_195" x1="1191.29" y1="2392.65" x2="1191.29" y2="0.589844" gradientUnits="userSpaceOnUse">
<stop stop-color="#F9F9F9"/>
<stop offset="1" stop-color="white"/>
</linearGradient>
<clipPath id="clip0_91_195">
<rect width="23.82" height="23.82" fill="white" transform="translate(0.59 0.589844)"/>
</clipPath>
</defs>
</svg>
